<svg width="86" height="88" viewBox="0 0 86 88" fill="none" xmlns="http://www.w3.org/2000/svg">
    <path d="M81.8224 32.5H59.9999C58.6192 32.5 57.4999 31.3807 57.4999 30L57.4999 25.1761C57.4999 18.9556 50.3633 15.4389 45.4306 19.2287L20.2789 38.5526C16.3713 41.5548 16.3713 47.4452 20.2789 50.4474L45.4306 69.7713C50.3633 73.5611 57.4999 70.0444 57.4999 63.8239L57.4999 58C57.4999 56.6193 58.6192 55.5 59.9999 55.5H81.8224C83.4952 55.5 84.4995 57.0016 84.0259 58.3246C78.1465 74.7511 62.4434 86.5 44 86.5C20.5279 86.5 1.5 67.4721 1.5 44C1.5 20.5279 20.5279 1.5 44 1.5C62.4434 1.5 78.1465 13.2489 84.0259 29.6754C84.4995 30.9984 83.4952 32.5 81.8224 32.5Z"
           stroke-width="3"/>
</svg>
